<svg xmlns="http://www.w3.org/2000/svg" width="528" height="528" viewBox="0 0 528 528"><rect width="100%" height="100%" fill="#fff"/><rect x="64" y="64" width="16" height="16" fill="#000"/><rect x="80" y="64" width="16" height="16" fill="#000"/><rect x="96" y="64" width="16" height="16" fill="#000"/><rect x="112" y="64" width="16" height="16" fill="#000"/><rect x="128" y="64" width="16" height="16" fill="#000"/><rect x="144" y="64" width="16" height="16" fill="#000"/><rect x="160" y="64" width="16" height="16" fill="#000"/><rect x="192" y="64" width="16" height="16" fill="#000"/><rect x="208" y="64" width="16" height="16" fill="#000"/><rect x="224" y="64" width="16" height="16" fill="#000"/><rect x="240" y="64" width="16" height="16" fill="#000"/><rect x="272" y="64" width="16" height="16" fill="#000"/><rect x="320" y="64" width="16" height="16" fill="#000"/><rect x="352" y="64" width="16" height="16" fill="#000"/><rect x="368" y="64" width="16" height="16" fill="#000"/><rect x="384" y="64" width="16" height="16" fill="#000"/><rect x="400" y="64" width="16" height="16" fill="#000"/><rect x="416" y="64" width="16" height="16" fill="#000"/><rect x="432" y="64" width="16" height="16" fill="#000"/><rect x="448" y="64" width="16" height="16" fill="#000"/><rect x="64" y="80" width="16" height="16" fill="#000"/><rect x="160" y="80" width="16" height="16" fill="#000"/><rect x="192" y="80" width="16" height="16" fill="#000"/><rect x="208" y="80" width="16" height="16" fill="#000"/><rect x="272" y="80" width="16" height="16" fill="#000"/><rect x="288" y="80" width="16" height="16" fill="#000"/><rect x="320" y="80" width="16" height="16" fill="#000"/><rect x="352" y="80" width="16" height="16" fill="#000"/><rect x="448" y="80" width="16" height="16" fill="#000"/><rect x="64" y="96" width="16" height="16" fill="#000"/><rect x="96" y="96" width="16" height="16" fill="#000"/><rect x="112" y="96" width="16" height="16" fill="#000"/><rect x="128" y="96" width="16" height="16" fill="#000"/><rect x="160" y="96" width="16" height="16" fill="#000"/><rect x="192" y="96" width="16" height="16" fill="#000"/><rect x="208" y="96" width="16" height="16" fill="#000"/><rect x="272" y="96" width="16" height="16" fill="#000"/><rect x="288" y="96" width="16" height="16" fill="#000"/><rect x="304" y="96" width="16" height="16" fill="#000"/><rect x="320" y="96" width="16" height="16" fill="#000"/><rect x="352" y="96" width="16" height="16" fill="#000"/><rect x="384" y="96" width="16" height="16" fill="#000"/><rect x="400" y="96" width="16" height="16" fill="#000"/><rect x="416" y="96" width="16" height="16" fill="#000"/><rect x="448" y="96" width="16" height="16" fill="#000"/><rect x="64" y="112" width="16" height="16" fill="#000"/><rect x="96" y="112" width="16" height="16" fill="#000"/><rect x="112" y="112" width="16" height="16" fill="#000"/><rect x="128" y="112" width="16" height="16" fill="#000"/><rect x="160" y="112" width="16" height="16" fill="#000"/><rect x="224" y="112" width="16" height="16" fill="#000"/><rect x="240" y="112" width="16" height="16" fill="#000"/><rect x="256" y="112" width="16" height="16" fill="#000"/><rect x="272" y="112" width="16" height="16" fill="#000"/><rect x="288" y="112" width="16" height="16" fill="#000"/><rect x="352" y="112" width="16" height="16" fill="#000"/><rect x="384" y="112" width="16" height="16" fill="#000"/><rect x="400" y="112" width="16" height="16" fill="#000"/><rect x="416" y="112" width="16" height="16" fill="#000"/><rect x="448" y="112" width="16" height="16" fill="#000"/><rect x="64" y="128" width="16" height="16" fill="#000"/><rect x="96" y="128" width="16" height="16" fill="#000"/><rect x="112" y="128" width="16" height="16" fill="#000"/><rect x="128" y="128" width="16" height="16" fill="#000"/><rect x="160" y="128" width="16" height="16" fill="#000"/><rect x="192" y="128" width="16" height="16" fill="#000"/><rect x="224" y="128" width="16" height="16" fill="#000"/><rect x="240" y="128" width="16" height="16" fill="#000"/><rect x="352" y="128" width="16" height="16" fill="#000"/><rect x="384" y="128" width="16" height="16" fill="#000"/><rect x="400" y="128" width="16" height="16" fill="#000"/><rect x="416" y="128" width="16" height="16" fill="#000"/><rect x="448" y="128" width="16" height="16" fill="#000"/><rect x="64" y="144" width="16" height="16" fill="#000"/><rect x="160" y="144" width="16" height="16" fill="#000"/><rect x="224" y="144" width="16" height="16" fill="#000"/><rect x="288" y="144" width="16" height="16" fill="#000"/><rect x="320" y="144" width="16" height="16" fill="#000"/><rect x="352" y="144" width="16" height="16" fill="#000"/><rect x="448" y="144" width="16" height="16" fill="#000"/><rect x="64" y="160" width="16" height="16" fill="#000"/><rect x="80" y="160" width="16" height="16" fill="#000"/><rect x="96" y="160" width="16" height="16" fill="#000"/><rect x="112" y="160" width="16" height="16" fill="#000"/><rect x="128" y="160" width="16" height="16" fill="#000"/><rect x="144" y="160" width="16" height="16" fill="#000"/><rect x="160" y="160" width="16" height="16" fill="#000"/><rect x="192" y="160" width="16" height="16" fill="#000"/><rect x="224" y="160" width="16" height="16" fill="#000"/><rect x="256" y="160" width="16" height="16" fill="#000"/><rect x="288" y="160" width="16" height="16" fill="#000"/><rect x="320" y="160" width="16" height="16" fill="#000"/><rect x="352" y="160" width="16" height="16" fill="#000"/><rect x="368" y="160" width="16" height="16" fill="#000"/><rect x="384" y="160" width="16" height="16" fill="#000"/><rect x="400" y="160" width="16" height="16" fill="#000"/><rect x="416" y="160" width="16" height="16" fill="#000"/><rect x="432" y="160" width="16" height="16" fill="#000"/><rect x="448" y="160" width="16" height="16" fill="#000"/><rect x="208" y="176" width="16" height="16" fill="#000"/><rect x="224" y="176" width="16" height="16" fill="#000"/><rect x="272" y="176" width="16" height="16" fill="#000"/><rect x="304" y="176" width="16" height="16" fill="#000"/><rect x="320" y="176" width="16" height="16" fill="#000"/><rect x="64" y="192" width="16" height="16" fill="#000"/><rect x="112" y="192" width="16" height="16" fill="#000"/><rect x="128" y="192" width="16" height="16" fill="#000"/><rect x="144" y="192" width="16" height="16" fill="#000"/><rect x="160" y="192" width="16" height="16" fill="#000"/><rect x="176" y="192" width="16" height="16" fill="#000"/><rect x="192" y="192" width="16" height="16" fill="#000"/><rect x="320" y="192" width="16" height="16" fill="#000"/><rect x="336" y="192" width="16" height="16" fill="#000"/><rect x="384" y="192" width="16" height="16" fill="#000"/><rect x="416" y="192" width="16" height="16" fill="#000"/><rect x="432" y="192" width="16" height="16" fill="#000"/><rect x="448" y="192" width="16" height="16" fill="#000"/><rect x="80" y="208" width="16" height="16" fill="#000"/><rect x="128" y="208" width="16" height="16" fill="#000"/><rect x="192" y="208" width="16" height="16" fill="#000"/><rect x="208" y="208" width="16" height="16" fill="#000"/><rect x="256" y="208" width="16" height="16" fill="#000"/><rect x="272" y="208" width="16" height="16" fill="#000"/><rect x="304" y="208" width="16" height="16" fill="#000"/><rect x="320" y="208" width="16" height="16" fill="#000"/><rect x="384" y="208" width="16" height="16" fill="#000"/><rect x="416" y="208" width="16" height="16" fill="#000"/><rect x="432" y="208" width="16" height="16" fill="#000"/><rect x="64" y="224" width="16" height="16" fill="#000"/><rect x="80" y="224" width="16" height="16" fill="#000"/><rect x="128" y="224" width="16" height="16" fill="#000"/><rect x="160" y="224" width="16" height="16" fill="#000"/><rect x="208" y="224" width="16" height="16" fill="#000"/><rect x="240" y="224" width="16" height="16" fill="#000"/><rect x="256" y="224" width="16" height="16" fill="#000"/><rect x="272" y="224" width="16" height="16" fill="#000"/><rect x="288" y="224" width="16" height="16" fill="#000"/><rect x="304" y="224" width="16" height="16" fill="#000"/><rect x="320" y="224" width="16" height="16" fill="#000"/><rect x="400" y="224" width="16" height="16" fill="#000"/><rect x="448" y="224" width="16" height="16" fill="#000"/><rect x="96" y="240" width="16" height="16" fill="#000"/><rect x="112" y="240" width="16" height="16" fill="#000"/><rect x="128" y="240" width="16" height="16" fill="#000"/><rect x="144" y="240" width="16" height="16" fill="#000"/><rect x="224" y="240" width="16" height="16" fill="#000"/><rect x="256" y="240" width="16" height="16" fill="#000"/><rect x="320" y="240" width="16" height="16" fill="#000"/><rect x="336" y="240" width="16" height="16" fill="#000"/><rect x="416" y="240" width="16" height="16" fill="#000"/><rect x="432" y="240" width="16" height="16" fill="#000"/><rect x="448" y="240" width="16" height="16" fill="#000"/><rect x="64" y="256" width="16" height="16" fill="#000"/><rect x="160" y="256" width="16" height="16" fill="#000"/><rect x="176" y="256" width="16" height="16" fill="#000"/><rect x="208" y="256" width="16" height="16" fill="#000"/><rect x="288" y="256" width="16" height="16" fill="#000"/><rect x="304" y="256" width="16" height="16" fill="#000"/><rect x="336" y="256" width="16" height="16" fill="#000"/><rect x="352" y="256" width="16" height="16" fill="#000"/><rect x="432" y="256" width="16" height="16" fill="#000"/><rect x="64" y="272" width="16" height="16" fill="#000"/><rect x="112" y="272" width="16" height="16" fill="#000"/><rect x="128" y="272" width="16" height="16" fill="#000"/><rect x="192" y="272" width="16" height="16" fill="#000"/><rect x="208" y="272" width="16" height="16" fill="#000"/><rect x="256" y="272" width="16" height="16" fill="#000"/><rect x="304" y="272" width="16" height="16" fill="#000"/><rect x="336" y="272" width="16" height="16" fill="#000"/><rect x="368" y="272" width="16" height="16" fill="#000"/><rect x="384" y="272" width="16" height="16" fill="#000"/><rect x="416" y="272" width="16" height="16" fill="#000"/><rect x="432" y="272" width="16" height="16" fill="#000"/><rect x="64" y="288" width="16" height="16" fill="#000"/><rect x="80" y="288" width="16" height="16" fill="#000"/><rect x="112" y="288" width="16" height="16" fill="#000"/><rect x="160" y="288" width="16" height="16" fill="#000"/><rect x="176" y="288" width="16" height="16" fill="#000"/><rect x="192" y="288" width="16" height="16" fill="#000"/><rect x="208" y="288" width="16" height="16" fill="#000"/><rect x="224" y="288" width="16" height="16" fill="#000"/><rect x="272" y="288" width="16" height="16" fill="#000"/><rect x="304" y="288" width="16" height="16" fill="#000"/><rect x="320" y="288" width="16" height="16" fill="#000"/><rect x="352" y="288" width="16" height="16" fill="#000"/><rect x="400" y="288" width="16" height="16" fill="#000"/><rect x="432" y="288" width="16" height="16" fill="#000"/><rect x="448" y="288" width="16" height="16" fill="#000"/><rect x="64" y="304" width="16" height="16" fill="#000"/><rect x="96" y="304" width="16" height="16" fill="#000"/><rect x="112" y="304" width="16" height="16" fill="#000"/><rect x="128" y="304" width="16" height="16" fill="#000"/><rect x="144" y="304" width="16" height="16" fill="#000"/><rect x="192" y="304" width="16" height="16" fill="#000"/><rect x="208" y="304" width="16" height="16" fill="#000"/><rect x="256" y="304" width="16" height="16" fill="#000"/><rect x="288" y="304" width="16" height="16" fill="#000"/><rect x="304" y="304" width="16" height="16" fill="#000"/><rect x="336" y="304" width="16" height="16" fill="#000"/><rect x="352" y="304" width="16" height="16" fill="#000"/><rect x="416" y="304" width="16" height="16" fill="#000"/><rect x="432" y="304" width="16" height="16" fill="#000"/><rect x="448" y="304" width="16" height="16" fill="#000"/><rect x="64" y="320" width="16" height="16" fill="#000"/><rect x="96" y="320" width="16" height="16" fill="#000"/><rect x="160" y="320" width="16" height="16" fill="#000"/><rect x="192" y="320" width="16" height="16" fill="#000"/><rect x="240" y="320" width="16" height="16" fill="#000"/><rect x="256" y="320" width="16" height="16" fill="#000"/><rect x="272" y="320" width="16" height="16" fill="#000"/><rect x="288" y="320" width="16" height="16" fill="#000"/><rect x="320" y="320" width="16" height="16" fill="#000"/><rect x="336" y="320" width="16" height="16" fill="#000"/><rect x="352" y="320" width="16" height="16" fill="#000"/><rect x="368" y="320" width="16" height="16" fill="#000"/><rect x="384" y="320" width="16" height="16" fill="#000"/><rect x="400" y="320" width="16" height="16" fill="#000"/><rect x="416" y="320" width="16" height="16" fill="#000"/><rect x="448" y="320" width="16" height="16" fill="#000"/><rect x="192" y="336" width="16" height="16" fill="#000"/><rect x="208" y="336" width="16" height="16" fill="#000"/><rect x="224" y="336" width="16" height="16" fill="#000"/><rect x="240" y="336" width="16" height="16" fill="#000"/><rect x="288" y="336" width="16" height="16" fill="#000"/><rect x="320" y="336" width="16" height="16" fill="#000"/><rect x="384" y="336" width="16" height="16" fill="#000"/><rect x="400" y="336" width="16" height="16" fill="#000"/><rect x="432" y="336" width="16" height="16" fill="#000"/><rect x="64" y="352" width="16" height="16" fill="#000"/><rect x="80" y="352" width="16" height="16" fill="#000"/><rect x="96" y="352" width="16" height="16" fill="#000"/><rect x="112" y="352" width="16" height="16" fill="#000"/><rect x="128" y="352" width="16" height="16" fill="#000"/><rect x="144" y="352" width="16" height="16" fill="#000"/><rect x="160" y="352" width="16" height="16" fill="#000"/><rect x="192" y="352" width="16" height="16" fill="#000"/><rect x="208" y="352" width="16" height="16" fill="#000"/><rect x="256" y="352" width="16" height="16" fill="#000"/><rect x="272" y="352" width="16" height="16" fill="#000"/><rect x="288" y="352" width="16" height="16" fill="#000"/><rect x="320" y="352" width="16" height="16" fill="#000"/><rect x="352" y="352" width="16" height="16" fill="#000"/><rect x="384" y="352" width="16" height="16" fill="#000"/><rect x="448" y="352" width="16" height="16" fill="#000"/><rect x="64" y="368" width="16" height="16" fill="#000"/><rect x="160" y="368" width="16" height="16" fill="#000"/><rect x="192" y="368" width="16" height="16" fill="#000"/><rect x="208" y="368" width="16" height="16" fill="#000"/><rect x="240" y="368" width="16" height="16" fill="#000"/><rect x="272" y="368" width="16" height="16" fill="#000"/><rect x="288" y="368" width="16" height="16" fill="#000"/><rect x="320" y="368" width="16" height="16" fill="#000"/><rect x="384" y="368" width="16" height="16" fill="#000"/><rect x="448" y="368" width="16" height="16" fill="#000"/><rect x="64" y="384" width="16" height="16" fill="#000"/><rect x="96" y="384" width="16" height="16" fill="#000"/><rect x="112" y="384" width="16" height="16" fill="#000"/><rect x="128" y="384" width="16" height="16" fill="#000"/><rect x="160" y="384" width="16" height="16" fill="#000"/><rect x="192" y="384" width="16" height="16" fill="#000"/><rect x="240" y="384" width="16" height="16" fill="#000"/><rect x="256" y="384" width="16" height="16" fill="#000"/><rect x="304" y="384" width="16" height="16" fill="#000"/><rect x="320" y="384" width="16" height="16" fill="#000"/><rect x="336" y="384" width="16" height="16" fill="#000"/><rect x="352" y="384" width="16" height="16" fill="#000"/><rect x="368" y="384" width="16" height="16" fill="#000"/><rect x="384" y="384" width="16" height="16" fill="#000"/><rect x="400" y="384" width="16" height="16" fill="#000"/><rect x="64" y="400" width="16" height="16" fill="#000"/><rect x="96" y="400" width="16" height="16" fill="#000"/><rect x="112" y="400" width="16" height="16" fill="#000"/><rect x="128" y="400" width="16" height="16" fill="#000"/><rect x="160" y="400" width="16" height="16" fill="#000"/><rect x="192" y="400" width="16" height="16" fill="#000"/><rect x="208" y="400" width="16" height="16" fill="#000"/><rect x="224" y="400" width="16" height="16" fill="#000"/><rect x="256" y="400" width="16" height="16" fill="#000"/><rect x="272" y="400" width="16" height="16" fill="#000"/><rect x="320" y="400" width="16" height="16" fill="#000"/><rect x="352" y="400" width="16" height="16" fill="#000"/><rect x="368" y="400" width="16" height="16" fill="#000"/><rect x="400" y="400" width="16" height="16" fill="#000"/><rect x="432" y="400" width="16" height="16" fill="#000"/><rect x="448" y="400" width="16" height="16" fill="#000"/><rect x="64" y="416" width="16" height="16" fill="#000"/><rect x="96" y="416" width="16" height="16" fill="#000"/><rect x="112" y="416" width="16" height="16" fill="#000"/><rect x="128" y="416" width="16" height="16" fill="#000"/><rect x="160" y="416" width="16" height="16" fill="#000"/><rect x="224" y="416" width="16" height="16" fill="#000"/><rect x="240" y="416" width="16" height="16" fill="#000"/><rect x="288" y="416" width="16" height="16" fill="#000"/><rect x="304" y="416" width="16" height="16" fill="#000"/><rect x="320" y="416" width="16" height="16" fill="#000"/><rect x="384" y="416" width="16" height="16" fill="#000"/><rect x="416" y="416" width="16" height="16" fill="#000"/><rect x="432" y="416" width="16" height="16" fill="#000"/><rect x="448" y="416" width="16" height="16" fill="#000"/><rect x="64" y="432" width="16" height="16" fill="#000"/><rect x="160" y="432" width="16" height="16" fill="#000"/><rect x="208" y="432" width="16" height="16" fill="#000"/><rect x="240" y="432" width="16" height="16" fill="#000"/><rect x="256" y="432" width="16" height="16" fill="#000"/><rect x="304" y="432" width="16" height="16" fill="#000"/><rect x="352" y="432" width="16" height="16" fill="#000"/><rect x="368" y="432" width="16" height="16" fill="#000"/><rect x="416" y="432" width="16" height="16" fill="#000"/><rect x="432" y="432" width="16" height="16" fill="#000"/><rect x="448" y="432" width="16" height="16" fill="#000"/><rect x="64" y="448" width="16" height="16" fill="#000"/><rect x="80" y="448" width="16" height="16" fill="#000"/><rect x="96" y="448" width="16" height="16" fill="#000"/><rect x="112" y="448" width="16" height="16" fill="#000"/><rect x="128" y="448" width="16" height="16" fill="#000"/><rect x="144" y="448" width="16" height="16" fill="#000"/><rect x="160" y="448" width="16" height="16" fill="#000"/><rect x="192" y="448" width="16" height="16" fill="#000"/><rect x="240" y="448" width="16" height="16" fill="#000"/><rect x="288" y="448" width="16" height="16" fill="#000"/><rect x="304" y="448" width="16" height="16" fill="#000"/><rect x="320" y="448" width="16" height="16" fill="#000"/><rect x="336" y="448" width="16" height="16" fill="#000"/><rect x="368" y="448" width="16" height="16" fill="#000"/><rect x="384" y="448" width="16" height="16" fill="#000"/><rect x="448" y="448" width="16" height="16" fill="#000"/></svg>